<svg xmlns="http://www.w3.org/2000/svg" width="24" height="24" viewBox="0 0 24 24">
  <g id="vuesax_outline_arrow-right" data-name="vuesax/outline/arrow-right" transform="translate(-556 -188)">
    <g id="arrow-right">
      <path id="Vector" d="M13.75,21.5h-6C2.32,21.5,0,19.18,0,13.75v-6C0,2.32,2.32,0,7.75,0h6c5.43,0,7.75,2.32,7.75,7.75v6C21.5,19.18,19.18,21.5,13.75,21.5Zm-6-20C3.14,1.5,1.5,3.14,1.5,7.75v6C1.5,18.36,3.14,20,7.75,20h6C18.36,20,20,18.36,20,13.75v-6c0-4.61-1.64-6.25-6.25-6.25Z" transform="translate(557.25 189.25)" fill="#707070"/>
      <path id="Vector-2" data-name="Vector" d="M.747,8.558a.742.742,0,0,1-.53-.22.754.754,0,0,1,0-1.06l3-3-3-3A.75.75,0,0,1,1.278.218l3.53,3.53a.754.754,0,0,1,0,1.06l-3.53,3.53A.742.742,0,0,1,.747,8.558Z" transform="translate(565.992 195.723)" fill="#707070"/>
      <path id="Vector-3" data-name="Vector" d="M0,0H24V24H0Z" transform="translate(556 188)" fill="none" opacity="0"/>
    </g>
  </g>
</svg>
