<svg xmlns="http://www.w3.org/2000/svg" width="41.053" height="41.053" viewBox="1549.06 2069.387 41.053 41.053"><g data-name="vuesax/outline/arrow-square-down"><g data-name="arrow-square-down"><path d="M1549.06 2095.642v-11.457c0-10.368 4.43-14.798 14.798-14.798h11.457c10.368 0 14.798 4.43 14.798 14.798v11.457c0 10.368-4.43 14.798-14.798 14.798h-11.457c-10.368 0-14.798-4.43-14.798-14.798Zm38.189-11.457c0-8.803-3.132-11.934-11.934-11.934h-11.457c-8.803 0-11.934 3.131-11.934 11.934v11.457c0 8.802 3.131 11.934 11.934 11.934h11.457c8.802 0 11.934-3.132 11.934-11.934v-11.457Z" fill="#500e9e" fill-rule="evenodd" data-name="Vector"/><path d="M1564.03 2089.913c0-.362.133-.725.42-1.012l6.74-6.74a1.44 1.44 0 0 1 2.024 0 1.44 1.44 0 0 1 0 2.024l-5.728 5.728 5.728 5.729a1.44 1.44 0 0 1 0 2.024 1.44 1.44 0 0 1-2.024 0l-6.74-6.74a1.416 1.416 0 0 1-.42-1.013Z" fill="#500e9e" fill-rule="evenodd" data-name="Vector"/></g></g></svg>