<svg id="award" xmlns="http://www.w3.org/2000/svg" width="29.127" height="29.127" viewBox="0 0 29.127 29.127">
  <path id="Vector" d="M10.3,22.455a4.177,4.177,0,0,1-2.027-.5l-5.74-3.313C.158,17.042,0,16.751,0,14.239V8.219c0-2.512.158-2.8,2.488-4.369L8.289.5A4.328,4.328,0,0,1,12.33.5l5.74,3.313c2.379,1.6,2.536,1.893,2.536,4.405v6.02c0,2.512-.158,2.8-2.488,4.369l-5.8,3.35A4,4,0,0,1,10.3,22.455Zm0-20.631a2.3,2.3,0,0,0-1.117.255L3.447,5.391C1.82,6.5,1.82,6.5,1.82,8.219v6.02c0,1.723,0,1.723,1.687,2.864L9.2,20.38a2.547,2.547,0,0,0,2.221,0l5.74-3.313c1.626-1.1,1.626-1.1,1.626-2.828V8.219c0-1.723,0-1.723-1.687-2.864L11.408,2.078A2.218,2.218,0,0,0,10.3,1.823Z" transform="translate(4.26 5.155)" fill="#292d32"/>
  <path id="Vector-2" data-name="Vector" d="M14.26,8.653a.917.917,0,0,1-.91-.91V4.551c0-1.918-.813-2.731-2.731-2.731H4.551c-1.918,0-2.731.813-2.731,2.731V7.658a.91.91,0,1,1-1.82,0V4.551C0,1.614,1.614,0,4.551,0h6.068c2.937,0,4.551,1.614,4.551,4.551V7.743A.917.917,0,0,1,14.26,8.653Z" transform="translate(6.978 1.517)" fill="#292d32"/>
  <path id="Vector-3" data-name="Vector" d="M6.869,9.418A2.078,2.078,0,0,1,6.08,9.26L4.89,8.8,3.7,9.272a1.842,1.842,0,0,1-1.784-.158,1.862,1.862,0,0,1-.7-1.651l.073-1.274L.473,5.206a1.849,1.849,0,0,1-.388-1.76A1.832,1.832,0,0,1,1.432,2.269l1.238-.316L3.361.874a1.786,1.786,0,0,1,3.07,0l.692,1.08,1.238.316A1.832,1.832,0,0,1,9.708,3.447a1.864,1.864,0,0,1-.4,1.748l-.813.983.073,1.274a1.875,1.875,0,0,1-.7,1.651A1.7,1.7,0,0,1,6.869,9.418ZM1.881,4.041l.813.983A1.937,1.937,0,0,1,3.106,6.3L3.033,7.573,4.223,7.1a1.942,1.942,0,0,1,1.335,0l1.189.473L6.674,6.3a1.959,1.959,0,0,1,.413-1.274L7.9,4.041,6.662,3.726a2,2,0,0,1-1.08-.777L4.9,1.881,4.211,2.949a1.963,1.963,0,0,1-1.08.789Z" transform="translate(9.673 11.978)" fill="#292d32"/>
  <path id="Vector-4" data-name="Vector" d="M0,0H29.127V29.127H0Z" fill="none" opacity="0"/>
</svg>
