<svg xmlns="http://www.w3.org/2000/svg" width="24" height="24" viewBox="0 0 24 24">
  <g id="vuesax_linear_receive-square" data-name="vuesax/linear/receive-square" transform="translate(-748 -380)">
    <g id="receive-square">
      <path id="Vector" d="M7,20h6c5,0,7-2,7-7V7c0-5-2-7-7-7H7C2,0,0,2,0,7v6C0,18,2,20,7,20Z" transform="translate(750 382)" fill="none" stroke="#500e9e" stroke-linecap="round" stroke-linejoin="round" stroke-width="1.5"/>
      <g id="Group">
        <g id="Group-2" data-name="Group">
          <path id="Vector-2" data-name="Vector" d="M0,0,3,3,6,0" transform="translate(757 391.51)" fill="none" stroke="#500e9e" stroke-linecap="round" stroke-linejoin="round" stroke-width="1.5"/>
          <path id="Vector-3" data-name="Vector" d="M0,8V0" transform="translate(760 386.51)" fill="none" stroke="#500e9e" stroke-linecap="round" stroke-linejoin="round" stroke-width="1.5"/>
        </g>
        <path id="Vector-4" data-name="Vector" d="M0,0A18.949,18.949,0,0,0,12,0" transform="translate(754 396.51)" fill="none" stroke="#500e9e" stroke-linecap="round" stroke-linejoin="round" stroke-width="1.5"/>
      </g>
      <path id="Vector-5" data-name="Vector" d="M0,0H24V24H0Z" transform="translate(748 380)" fill="none" opacity="0"/>
    </g>
  </g>
</svg>
