<svg xmlns="http://www.w3.org/2000/svg" xmlns:xlink="http://www.w3.org/1999/xlink" width="344.746" height="571.834" viewBox="0 0 344.746 571.834">
  <defs>
    <linearGradient id="linear-gradient" x1="0.422" y1="1.508" x2="0.67" y2="-0.148" gradientUnits="objectBoundingBox">
      <stop offset="0" stop-color="#fff"/>
      <stop offset="1" stop-color="#94b9ff"/>
    </linearGradient>
    <linearGradient id="linear-gradient-2" x1="0.282" y1="1.713" x2="0.928" y2="-0.675" xlink:href="#linear-gradient"/>
  </defs>
  <g id="Character13" transform="matrix(0.995, 0.105, -0.105, 0.995, -242.991, -136.081)">
    <path id="Path_75" data-name="Path 75" d="M368.919,170.4,362,480.419l230.61,5.142,6.855-309.956Z" transform="translate(-19.065 -24.618)" fill="url(#linear-gradient)"/>
    <path id="Path_76" data-name="Path 76" d="M514.771,253.242A15.171,15.171,0,1,0,499.6,238.071,15.171,15.171,0,0,0,514.771,253.242Z" transform="translate(-69.322 -43.793)" fill="#1f2d49"/>
    <path id="Path_77" data-name="Path 77" d="M495.12,228.739a10.22,10.22,0,1,0-10.22-10.22A10.213,10.213,0,0,0,495.12,228.739Z" transform="translate(-63.953 -38.461)" fill="#1f2d49"/>
    <path id="Path_78" data-name="Path 78" d="M326.111,852.984c.127,0,.19.127.127.19.063.063.063.063.063.254a19.673,19.673,0,0,1,.7,3.237L313.86,867.2l-1.46-1.65s4.824-5.967,6.665-7.744l2.158-2.158c.635-.635,1.143-1.333,1.714-1.9.762-1.016,2.856-.635,2.856-.762A.5.5,0,0,1,326.111,852.984Z" transform="translate(-0.95 -273.911)" fill="#233b62"/>
    <path id="Path_79" data-name="Path 79" d="M430.748,708.5l-12.7,12.314-70.9,68.491-1.27,1.206-.571.889-.063.063L335.215,806.7l-1.143,1.714-.381.571L326.9,819.33l5.586,2.793,1.65.825,2.285,1.079,3.618,1.841.063.063,3.809,1.968.19-.317,8.76-16.694a25,25,0,0,1,6.982-8.252L436.968,743.6l14.663-11.235Z" transform="translate(-6.245 -221.151)" fill="#bc775c"/>
    <path id="Path_80" data-name="Path 80" d="M329.859,838.383c3.428-1.587,7.236-2.983,10.918-2.793-2.222,1.968-3.3,5.459-4.761,8-3.047,5.268-10.918,15.044-6.919,23.359,2.222,4.634,8.569,7.173,8.633,7.046,1.079,4.761,6.284,24.312-4.126,13.013-5.84-6.284-11.553-13.076-14.473-19.741-1.206-2.729,1.333-5.459,2.539-7.808,1.587-3.491,3.936-8.125,3.618-12.061l-.063-.063c-.19-.254-13.647,11.807-13.9,11.87-.444-.762-1.523-2.285-1.523-2.285S329.224,838.637,329.859,838.383Z" transform="translate(0 -267.562)" fill="#febb94"/>
    <path id="Path_81" data-name="Path 81" d="M568.969,940.473c.127-.063.254-.063.19,0,.127,0,.127,0,.19.127a15.815,15.815,0,0,1,2.729,1.841L570.048,959.2l-2.158-.127s-.7-7.681-.635-10.22c0-1.079,0-2.095.063-3.047,0-.889-.127-1.777-.127-2.539-.19-1.206,1.587-2.476,1.523-2.539A.434.434,0,0,1,568.969,940.473Z" transform="translate(-94.003 -305.858)" fill="#233b62"/>
    <path id="Path_82" data-name="Path 82" d="M578.864,727.8l-.444,17.646-2.793,98.516-.127,1.777.19,1.016v.127l3.491,17.9.444,2.031.127.7,2.412,12.188,5.967-1.9,1.714-.571,2.412-.825,3.872-1.206h.127l4.126-1.27-.063-.317-5.4-18.027a25.826,25.826,0,0,1-.825-10.791l13.838-96.1,2.6-18.281Z" transform="translate(-97.043 -228.2)" fill="#bc775c"/>
    <path id="Path_83" data-name="Path 83" d="M565.433,920.448c1.333-3.491,3.047-7.173,5.9-9.648-.254,2.983,1.46,6.221,2.222,9.077,1.46,5.9,2.729,18.345,11.362,21.519,4.888,1.777,11.108-.889,11.108-.952,4.126,2.666,21.455,12.949,6.157,12.188-8.569-.444-17.393-1.27-24.185-4-2.793-1.143-2.856-4.824-3.618-7.363-1.333-3.618-2.856-8.569-5.84-11.172h-.127c-.317-.063-1.523,17.964-1.65,18.154-.825-.19-2.666-.571-2.666-.571S565.179,921.083,565.433,920.448Z" transform="translate(-92.879 -295.038)" fill="#febb94"/>
    <path id="Path_84" data-name="Path 84" d="M532.657,518.8s22.026,116.543,23.74,129.048c1.65,12.5,2.793,99.531,2.793,99.531l-73.76-4.7,16.885-101.816L500.284,595.8s-2.6,44.561-4.38,52.051c-1.841,7.49-65.317,85.059-65.317,85.059L396.5,692.091l54.209-72.363s5.586-35.1,6.475-54.019c1.714-36.436,7.427-45.957,7.427-45.957Z" transform="translate(-31.666 -151.866)" fill="#1f2d49"/>
    <path id="Path_85" data-name="Path 85" d="M569.555,519.2l-68.047.7L497.7,533.609l73.061-9.521Z" transform="translate(-68.628 -152.012)" fill="#0d1b33"/>
    <path id="Path_86" data-name="Path 86" d="M720.593,365.067l5.205-6.6a12.3,12.3,0,0,1,4.189-3.682c2.539-1.27,6.475-3.682,7.808-6.03,2.222-3.809,11.108-14.028,3.428-21.963-2.856-2.92-2.158-2.222-7.808-2.158-5.713.063-6.538,5.967-9.395,9.839,0,0-.635-4.443-3.809-6.475s-1.079,10.41-3.491,15.107-.444,6.475-6.221,14.79Z" transform="translate(-146.349 -80.906)" fill="#bc775c"/>
    <path id="Path_87" data-name="Path 87" d="M745.334,325.8,740.7,336.274Z" transform="translate(-157.38 -81.376)" fill="#e56441"/>
    <path id="Path_88" data-name="Path 88" d="M745.334,325.8,740.7,336.274" transform="translate(-157.38 -81.376)" fill="none" stroke="#e56441" stroke-linecap="round" stroke-width="1.033"/>
    <path id="Path_89" data-name="Path 89" d="M753.811,328.7,747.4,339.872Z" transform="translate(-159.827 -82.435)" fill="#e56441"/>
    <path id="Path_90" data-name="Path 90" d="M753.811,328.7,747.4,339.872" transform="translate(-159.827 -82.435)" fill="none" stroke="#e56441" stroke-linecap="round" stroke-width="1.033"/>
    <path id="Path_91" data-name="Path 91" d="M760.478,340.3l-5.078,6.665Z" transform="translate(-162.749 -86.672)" fill="#e56441"/>
    <path id="Path_92" data-name="Path 92" d="M760.478,340.3l-5.078,6.665" transform="translate(-162.749 -86.672)" fill="none" stroke="#e56441" stroke-linecap="round" stroke-width="1.033"/>
    <path id="Path_93" data-name="Path 93" d="M733.6,344s1.968,5.586,1.65,10.029Z" transform="translate(-154.786 -88.023)" fill="#e56441"/>
    <path id="Path_94" data-name="Path 94" d="M733.6,344s1.968,5.586,1.65,10.029" transform="translate(-154.786 -88.023)" fill="none" stroke="#e56441" stroke-linecap="round" stroke-width="1.033"/>
    <path id="Path_95" data-name="Path 95" d="M600,360.4c5.332,1.841,12.759,5.586,14.727,9.775l17.71,40.371,37.705-43.228,13.076,10.854-37.642,56.3c-8,11.87-19.678,13.52-27.1,3.745l-14.79-23.3Z" transform="translate(-105.991 -94.013)" fill="#febb94"/>
    <path id="Path_96" data-name="Path 96" d="M606.4,415.081s1.587-2.729,1.587,11.616l9.331,31.421-14.79-23.3C590.655,418.889,600.05,414.636,606.4,415.081Z" transform="translate(-104.835 -113.908)" fill="#ff967c"/>
    <path id="Path_97" data-name="Path 97" d="M551.323,348.667s13.711,5.459,15.806,7.109,4.063,15.361,7.617,21.836,8.76,18.472,1.143,29.517c-7.617,10.981-6.792,19.741-6.792,19.741l1.65,27.612-65.571,1.206a4.1,4.1,0,0,1-1.714-.317,4.2,4.2,0,0,1-1.4-.952,4.3,4.3,0,0,1-.889-1.46,3.975,3.975,0,0,1-.19-1.714c.7-8.062,4.063-19.36,4.316-32.183.381-17.393,3.3-75.537,3.3-75.537l25.9-.825C540.278,343.716,551.323,348.667,551.323,348.667Z" transform="translate(-69.819 -87.548)" fill="#fff"/>
    <path id="Path_98" data-name="Path 98" d="M600.5,436.834h0l-.127-2.6c-.063-1.587,0-3.618,0-5.84a37.071,37.071,0,0,1,6.665-16.25c7.617-10.981,2.412-22.979-1.143-29.517-3.555-6.475-5.522-20.186-7.617-21.836s-8.7-4.189-8.7-4.189-.381,11.934-.762,22.852S585.9,483.87,585.9,483.87h27.549C613.322,483.934,601.388,444.959,600.5,436.834Z" transform="translate(-100.841 -92.625)" fill="#febb94"/>
    <path id="Path_99" data-name="Path 99" d="M515.215,343.2s11.108,19.551,15.552,39.419-6.538,86.772-5.078,95.405L474.4,481.96s18.408-24.438,19.741-47.48c1.333-22.979,3.745-69.38,3.745-69.38l2.539-21.265Z" transform="translate(-60.118 -87.731)" fill="#febb94"/>
    <path id="Path_100" data-name="Path 100" d="M518.794,381.5s4,8.7,4.57,15.171-4.951,21.772,7.3,23.55c15.044,2.222,11.807,5.015,4.824,6.729s-15.044-1.714-15.615,5.459c-.889,11.3-8.76,17.646-14.473,16C509.272,414.127,504.765,399.146,518.794,381.5Z" transform="translate(-71.44 -101.719)" fill="#ff967c"/>
    <path id="Path_101" data-name="Path 101" d="M568.912,319.089l2.92,21.392s1.841,4.507-3.047,4.761c-4.888.317-11.934-2.349-16.313-5.84-4.316-3.491-4.126-3.872-3.047-6.855s4.761-24.946,4.761-24.946Z" transform="translate(-87.281 -74.728)" fill="#bc775c"/>
    <path id="Path_102" data-name="Path 102" d="M577.826,344.9a100.5,100.5,0,0,1-7.617-13.521c-1.206-2.476-2.222-4.761-2.983-6.411-.381-.825-.635-1.523-.825-1.968h0l8.887,3.682Z" transform="translate(-93.719 -80.353)" fill="#93523e" stroke="#93523e" stroke-width="1"/>
    <path id="Path_103" data-name="Path 103" d="M571.832,256.615s7.681,21.9,2.983,35.356c-3.047,8.76-9.077,8.315-23.169,1.333-12.949-6.348-16.25-11.045-16.25-11.045l-1.4-22.09C534.063,260.169,563.707,238.778,571.832,256.615Z" transform="translate(-81.886 -53.513)" fill="#bc775c"/>
    <path id="Path_104" data-name="Path 104" d="M556.112,255.088s-1.27,5.586-8.315,9.839c-3.872,2.285-4.38,11.934-4.38,11.934s-.889-6.6-6.094-4.253,2.729,10.728,7.236,12.5c0,0-.508,2.793-1.777,9.521,0,0-16.567-6.03-18.472-21.392-.952-7.681-3.872-31.865,17.9-35.293,23.8-3.745,26.724,10.537,29.961,21.772C572.108,259.658,562.777,264.673,556.112,255.088Z" transform="translate(-78.099 -49.067)" fill="#1f2d49"/>
    <path id="Path_105" data-name="Path 105" d="M578.6,307.817l7.046-.317v.063a5.226,5.226,0,0,1-.381,1.016,3.081,3.081,0,0,1-2.285,1.777,3.937,3.937,0,0,1-3.682-1.333,4.194,4.194,0,0,1-.635-1.143C578.6,307.881,578.6,307.881,578.6,307.817Z" transform="translate(-98.175 -74.692)" fill="#93523e" stroke="#93523e" stroke-width="1"/>
    <path id="Path_106" data-name="Path 106" d="M591.208,287.873c.762-.19,1.206-1.333.889-2.476s-1.206-1.9-1.968-1.714-1.206,1.333-.889,2.476S590.446,288.063,591.208,287.873Z" transform="translate(-102.023 -65.982)" fill="#080b09"/>
    <path id="Path_107" data-name="Path 107" d="M572.908,292.973c.762-.19,1.206-1.333.889-2.476s-1.206-1.9-1.968-1.714-1.206,1.333-.889,2.476C571.258,292.465,572.146,293.227,572.908,292.973Z" transform="translate(-95.34 -67.845)" fill="#080b09"/>
    <path id="Path_108" data-name="Path 108" d="M590.211,277.625l-5.9,1.65a.572.572,0,0,1-.317-.063c-.063-.064-.19-.127-.19-.254a1.757,1.757,0,0,1,.063-.571,1.275,1.275,0,0,1,.254-.508,2.759,2.759,0,0,1,.444-.381c.19-.064.317-.127.508-.19l5.078-.508C590.529,276.863,590.719,277.5,590.211,277.625Z" transform="translate(-100.074 -63.479)" fill="#080b09"/>
    <path id="Path_109" data-name="Path 109" d="M562.013,284.356l8-1.587a1.317,1.317,0,0,0-.381-.635,3.488,3.488,0,0,0-.571-.444,1.279,1.279,0,0,0-.7-.19,2.282,2.282,0,0,0-.7.127l-5.84,2.285C561.568,283.976,561.7,284.42,562.013,284.356Z" transform="translate(-91.998 -65.196)" fill="#080b09"/>
    <path id="Path_110" data-name="Path 110" d="M583.7,288.1l2.222,5.015-.762,2.285" transform="translate(-100.038 -67.606)" fill="none" stroke="#93523e" stroke-linecap="round" stroke-width="1.033"/>
    <path id="Path_111" data-name="Path 111" d="M501.759,356.457s-14.79-7.109-17.583-2.539c-5.776,9.141-15.171,41.069-18.281,48.5-.508,1.333,22.471,5.078,22.471,5.078l22.6-38.467Z" transform="translate(-57.008 -91.086)" fill="#febb94"/>
    <path id="Path_112" data-name="Path 112" d="M505.825,374.95A15.425,15.425,0,1,0,490.4,359.525,15.441,15.441,0,0,0,505.825,374.95Z" transform="translate(-65.961 -88.059)" fill="#febb94"/>
    <path id="Path_113" data-name="Path 113" d="M459,439.91l20.82,8,6.03-14.98,1.016-2.349L465.475,422.2l-1.016,2.793Z" transform="translate(-54.493 -116.584)" fill="#febb94"/>
    <path id="Path_114" data-name="Path 114" d="M468.772,461.544A11.172,11.172,0,1,0,457.6,450.372,11.188,11.188,0,0,0,468.772,461.544Z" transform="translate(-53.982 -122.793)" fill="#febb94"/>
    <path id="Path_115" data-name="Path 115" d="M580,453.085s11.553,3.936,18.091,1.143c0,0,10.537,4.634,12.061,3.809,2.476-1.4.508-3.745.508-3.745s6.855,1.9,7.744-4.57c1.4-9.077-10.981-10.981-16.821-11.68-5.776-.825-21.582,3.618-21.582,3.618Z" transform="translate(-98.686 -122.333)" fill="#bc775c"/>
    <path id="Path_116" data-name="Path 116" d="M625.251,437.194,613,437.639l11.807,3.745s4.189-1.968,2.222-3.682A2.8,2.8,0,0,0,625.251,437.194Z" transform="translate(-110.739 -122.057)" fill="#bc775c"/>
    <path id="Path_117" data-name="Path 117" d="M623.717,462.229,616.1,459.5Z" transform="translate(-111.871 -130.208)" fill="#93523e"/>
    <path id="Path_118" data-name="Path 118" d="M623.717,462.229,616.1,459.5" transform="translate(-111.871 -130.208)" fill="none" stroke="#93523e" stroke-linecap="round" stroke-width="1.033"/>
    <path id="Path_119" data-name="Path 119" d="M628.274,453.464s-8.633-3.174-10.474-3.364Z" transform="translate(-112.492 -126.774)" fill="#93523e"/>
    <path id="Path_120" data-name="Path 120" d="M628.274,453.464s-8.633-3.174-10.474-3.364" transform="translate(-112.492 -126.774)" fill="none" stroke="#93523e" stroke-linecap="round" stroke-width="1.033"/>
    <path id="Path_121" data-name="Path 121" d="M629.654,446.528A38.616,38.616,0,0,0,618.8,443.1Z" transform="translate(-112.858 -124.218)" fill="#93523e"/>
    <path id="Path_122" data-name="Path 122" d="M629.654,446.528A38.616,38.616,0,0,0,618.8,443.1" transform="translate(-112.858 -124.218)" fill="none" stroke="#93523e" stroke-linecap="round" stroke-width="1.033"/>
    <path id="Path_123" data-name="Path 123" d="M475.6,439.1s62.651,3.047,67.412,2.158l-.127,13.521-65.19,6.411Z" transform="translate(-60.556 -122.757)" fill="#febb94"/>
    <path id="Path_124" data-name="Path 124" d="M596.576,108.458,349.652,103a12.514,12.514,0,0,0-8.887,3.428,12.221,12.221,0,0,0-3.809,8.7L328.9,477.7a12.147,12.147,0,0,0,.825,4.761,11.431,11.431,0,0,0,2.6,4.063,12.62,12.62,0,0,0,4,2.793,13.683,13.683,0,0,0,4.761,1.079l246.924,5.459a12.514,12.514,0,0,0,8.887-3.428,12.221,12.221,0,0,0,3.809-8.7l8.062-362.578a12.149,12.149,0,0,0-.825-4.761,11.433,11.433,0,0,0-2.6-4.062,12.621,12.621,0,0,0-4-2.793A14.013,14.013,0,0,0,596.576,108.458ZM350.223,443.36l6.348-285.073a12.358,12.358,0,0,1,12.7-12.124l205.791,4.57a12.4,12.4,0,0,1,4.761,1.079,12.475,12.475,0,0,1,6.6,6.855,12.349,12.349,0,0,1,.825,4.761L580.9,448.5a12.4,12.4,0,0,1-1.079,4.761,12.619,12.619,0,0,1-2.793,4,12.018,12.018,0,0,1-4.062,2.6,12.348,12.348,0,0,1-4.761.825l-205.791-4.57a12.4,12.4,0,0,1-4.761-1.079,12.308,12.308,0,0,1-7.427-11.68Z" transform="translate(-6.971)" fill="url(#linear-gradient-2)"/>
    <path id="Path_125" data-name="Path 125" d="M388.106,143.812a8.506,8.506,0,1,0-8.506-8.506A8.506,8.506,0,0,0,388.106,143.812Z" transform="translate(-25.493 -8.694)" fill="#fff"/>
    <path id="Path_126" data-name="Path 126" d="M471.12,133.316,425.1,132.3" transform="translate(-42.112 -10.703)" fill="none" stroke="#fff" stroke-linecap="round" stroke-miterlimit="10" stroke-width="5.366"/>
    <path id="Path_127" data-name="Path 127" d="M452.141,147.871,425.1,147.3" transform="translate(-42.112 -16.181)" fill="none" stroke="#fff" stroke-linecap="round" stroke-miterlimit="10" stroke-width="5.366"/>
    <path id="Path_128" data-name="Path 128" d="M543.5,343.2s-.254,45.449,17.329,50.146c17.646,4.7,18.535-39.228,18.535-39.228" transform="translate(-85.355 -87.731)" fill="none" stroke="#fff" stroke-miterlimit="10" stroke-width="1.789"/>
  </g>
</svg>
