<svg xmlns="http://www.w3.org/2000/svg" width="379.341" height="471.201" viewBox="0 0 379.341 471.201">
  <g id="Character02" transform="translate(-216.502 -170.645)">
    <path id="Path_35" data-name="Path 35" d="M700.183,590.787H420.3V788.509H700.183Z" transform="translate(-104.34 -146.663)" fill="#5ca4e6"/>
    <path id="Path_37" data-name="Path 37" d="M502.778,534.172s-21.53-18.794-39.035-2.823S373.914,657,373.914,657l21.875,15.127,82.039-92.262,14.28,22.986Z" transform="translate(-92.826 -130.311)" fill="#fcba9f"/>
    <path id="Path_38" data-name="Path 38" d="M510.357,811.23c9.018-6.59,18.313-13.383,28.1-15.576a1.559,1.559,0,0,1,1.9,1.423l1.073,18.161a1.549,1.549,0,0,1-1.246,1.612L473.134,830.1c-4.944.977-8.115-1.173-9.636-4.991a.733.733,0,0,1,.943-.944,35.918,35.918,0,0,0,27.094-.946C497.721,820.464,503.969,815.9,510.357,811.23Z" transform="translate(-115.053 -197.51)" fill="#5661ae" fill-rule="evenodd"/>
    <path id="Path_39" data-name="Path 39" d="M531.6,736.965s1.27,28.663,1.939,31.579a33.813,33.813,0,0,0,1.726,4.66c1.149,2.74,2.43,5.792,2.547,8.011-9.307,2.48-18.175,8.959-26.789,15.252-6.388,4.667-12.635,9.232-18.821,11.988a35.94,35.94,0,0,1-25.857,1.38c-1.166-4.954,2.218-10.44,10.756-12.911,15.3-4.429,23.665-7.236,29-20.035,3.792-9.095-2.559-40.76-2.559-40.76Z" transform="translate(-115.715 -182.743)" fill="#ffccb3" fill-rule="evenodd"/>
    <path id="Path_40" data-name="Path 40" d="M518.407,783.092c3.009-.185,14.964-.972,26.411-2.469,2.224-.29,4.21,3.887,3.26,6.545a37.905,37.905,0,0,0-1.388,5.943A57.651,57.651,0,0,0,536,798.327c.692-4.735-2.2-6.832-6.488-6.616-3.39.171-11.046,2.324-14.994,3.493a1.185,1.185,0,0,1-1.419-1.617l4.3-9.787a1.182,1.182,0,0,1,1.012-.707Z" transform="translate(-127.352 -193.785)" fill="#fff" fill-rule="evenodd"/>
    <path id="Path_41" data-name="Path 41" d="M477.144,830.718c7.79.61,12.5-1.416,12.5-1.416l-3.135-15.858-12.188,3Z" transform="translate(-117.752 -201.936)" fill="#fff" fill-rule="evenodd"/>
    <path id="Path_42" data-name="Path 42" d="M333.211,733.524c11.138.831,22.619,1.686,31.493,6.363a1.559,1.559,0,0,1,.527,2.318l-10.959,14.522a1.549,1.549,0,0,1-1.994.419l-59.642-33.388c-4.4-2.462-5.418-6.155-4.1-10.048a.733.733,0,0,1,1.331-.107,35.916,35.916,0,0,0,21.24,16.847C317.6,732.361,325.321,732.936,333.211,733.524Z" transform="translate(-71.498 -177.057)" fill="#5661ae" fill-rule="evenodd"/>
    <path id="Path_43" data-name="Path 43" d="M388.29,691.5l-19,25.3a33.854,33.854,0,0,0-1.707,4.668c-.9,2.831-1.906,5.985-3.255,7.75-8.694-4.147-19.646-4.965-30.284-5.759-7.889-.589-15.6-1.164-22.1-3.076a35.943,35.943,0,0,1-20.579-15.715c2.324-4.528,8.458-6.51,16.56-2.854,14.522,6.551,22.708,9.836,35.069,3.551a21.06,21.06,0,0,0,5.284-4.418l19.2-28.272Z" transform="translate(-72.333 -166.991)" fill="#fcba9f" fill-rule="evenodd"/>
    <path id="Path_44" data-name="Path 44" d="M361.089,711.761c2.411,1.81,12.023,8.963,21.708,15.245,1.882,1.222.684,5.689-1.762,7.1a37.8,37.8,0,0,0-4.91,3.624,57.6,57.6,0,0,0-11.522-2.962c3.6-3.157,2.758-6.626-.65-9.244-2.691-2.068-9.916-5.394-13.679-7.064a1.185,1.185,0,0,1-.031-2.151l9.618-4.663a1.183,1.183,0,0,1,1.228.117Z" transform="translate(-86.783 -176.635)" fill="#fff" fill-rule="evenodd"/>
    <path id="Path_45" data-name="Path 45" d="M298.782,720.313c5.535,5.515,10.435,7.028,10.435,7.028l7.9-14.106-11.224-5.619Z" transform="translate(-74.175 -175.665)" fill="#fff" fill-rule="evenodd"/>
    <path id="Path_46" data-name="Path 46" d="M565.86,519.089l-56.77,10.086,11.174,44.938h36.364S573.914,536.958,565.86,519.089Z" transform="translate(-126.382 -128.864)" fill="#ffccb3"/>
    <path id="Path_47" data-name="Path 47" d="M511.225,576.611a22.844,22.844,0,1,0-22.844-22.844A22.844,22.844,0,0,0,511.225,576.611Z" transform="translate(-121.241 -131.802)" fill="#ffccb3"/>
    <path id="Path_48" data-name="Path 48" d="M488.758,566.1l22.859,143.129,26.366,1.1L534.9,568.844Z" transform="translate(-121.335 -140.534)" fill="#ffccb3"/>
    <path id="Path_49" data-name="Path 49" d="M536.393,523.5s8.749,2.694,12.36,16.964-.329,34.122-.329,34.122h5.626s20.06-23.557,5.3-53.58Z" transform="translate(-133.16 -129.341)" fill="#ff967c"/>
    <path id="Path_50" data-name="Path 50" d="M586.433,361.511l-7.146,3.428a20.643,20.643,0,0,0-11.1,13.631l-16.153,64.994-36.417,17.412,8.3,13.187,68.854-2.442Z" transform="translate(-128.002 -89.747)" fill="#5661ae"/>
    <path id="Path_51" data-name="Path 51" d="M593.446,392.634s-12.539,17.616-6.471,34.394,3.59,19.889,2.073,34.754,3.438,11.407,3.438,11.407l17.59-8.3S617.414,394.581,593.446,392.634Z" transform="translate(-145.305 -97.473)" fill="#465393"/>
    <path id="Path_52" data-name="Path 52" d="M647.869,499.379s6.952,34.022-2.158,48.239c-11.532,18-25.637,20.751-36.061,20.945H541.224s-.126-42.691-33.837-49.984C507.387,518.579,618.333,487.68,647.869,499.379Z" transform="translate(-125.959 -123.315)" fill="#1f2d49"/>
    <path id="Path_53" data-name="Path 53" d="M672.352,512.007l-72.518,2.388.771-5.065,14.132-1.634h57.514Z" transform="translate(-148.909 -126.036)" fill="#0d1b33"/>
    <path id="Path_54" data-name="Path 54" d="M563.374,492.226s-8.871,2.579-12.857,3.751-11.865,3.985-11.865,3.985l5.77,8.2,26.148-1.555Z" transform="translate(-133.721 -122.196)" fill="#ffccb3"/>
    <path id="Path_55" data-name="Path 55" d="M618.5,351.31S603.6,357.2,601.33,359.02s-4.432,16.663-8.3,23.712-9.52,20.058-1.261,32.008,7.381,21.438,7.381,21.438l-1.758,29.976,68.892,2.1a4.431,4.431,0,0,0,4.551-4.826c-.791-8.739-2.118-21.8-2.4-35.713-.385-18.86-.673-81.878-.673-81.878l-31.006-.974C630.51,345.935,618.5,351.31,618.5,351.31Z" transform="translate(-145.852 -85.613)" fill="#5661ae"/>
    <path id="Path_56" data-name="Path 56" d="M688.735,379.611a16.729,16.729,0,1,0-16.729-16.729A16.729,16.729,0,0,0,688.735,379.611Z" transform="translate(-166.825 -85.934)" fill="#5661ae"/>
    <path id="Path_57" data-name="Path 57" d="M671.637,487.74s-1.431,5.23-16.73,11.342c0,0-35.864-.78-53.683-.405s1.91-4.326,11.857-9.285,57.424-18.734,57.424-18.734Z" transform="translate(-147.471 -116.842)" fill="#465393"/>
    <path id="Path_58" data-name="Path 58" d="M663.827,380.42s-10.373,9.457-10.983,16.474-2.021,26.582-15.351,28.534c-16.34,2.392-20.617,4.721-13.042,6.552s24.765-1.136,24.765,6.712c0,5.584,6.679,9.762,10.035,6.712S689.337,395.979,663.827,380.42Z" transform="translate(-154.12 -94.441)" fill="#465393"/>
    <path id="Path_59" data-name="Path 59" d="M679.4,370.1c-1.407,6.713-14.786,77.439-14.786,77.439s-1.763,10.58-12.1,13.2l-72.093,18.329-12.686-19.029,65.384-22.362,13.005-70.02S681.275,361.144,679.4,370.1Z" transform="translate(-140.939 -90.704)" fill="#5661ae"/>
    <path id="Path_60" data-name="Path 60" d="M626.488,330.375l.686,23.209s-.184,4,4.676,3.464,14.641-4.174,17.342-8.853,1-6.285,1-6.285L635.353,313Z" transform="translate(-155.525 -77.703)" fill="#ffccb3"/>
    <path id="Path_61" data-name="Path 61" d="M626.488,337.324l6.073-7.2-5.55,22.154Z" transform="translate(-155.525 -81.955)" fill="#ff967c"/>
    <path id="Path_62" data-name="Path 62" d="M633.675,251.819a24.083,24.083,0,0,1,2.79-12.757c3.455-6.246,10.631-14.883,21.528-11.162s18.87,12.093,14.75,23.919S657.18,267.43,651.35,266.17,633.675,251.819,633.675,251.819Z" transform="translate(-157.299 -56.356)" fill="#080b09"/>
    <path id="Path_63" data-name="Path 63" d="M629.021,261.237a5.964,5.964,0,0,1,6.27-2.813c4.312.794,8.851,4.2,12.709,8.283s3.732,7.05,1.979,8.858S629.021,261.237,629.021,261.237Z" transform="translate(-156.154 -64.129)" fill="#febb94"/>
    <path id="Path_64" data-name="Path 64" d="M501.878,419.719l27.645,76.589h55.583a8.819,8.819,0,0,0-8.818-8.818H536.076L512.2,419.719Z" transform="translate(-124.592 -104.197)" fill="#fff"/>
    <path id="Path_65" data-name="Path 65" d="M477.252,419.719H402.676l28.841,76.589H504.9Z" transform="translate(-99.966 -104.197)" fill="#d4dcf4"/>
    <path id="Path_66" data-name="Path 66" d="M468.443,478.244a6.726,6.726,0,1,0-6.725-6.725A6.725,6.725,0,0,0,468.443,478.244Z" transform="translate(-114.622 -115.386)" fill="#fff"/>
    <path id="Path_67" data-name="Path 67" d="M586.328,293s2.3,22.214,13.108,32.329c7.049,6.6,13.512,4.907,23.15-8.295,8.836-12.1,9.614-17.991,9.614-17.991l-9.339-21.012S585.23,272.673,586.328,293Z" transform="translate(-145.55 -68.865)" fill="#ffccb3"/>
    <path id="Path_68" data-name="Path 68" d="M588.2,284.567s5.318,8.465,15.058,8.6a15.351,15.351,0,0,0,14.816,2.607s-3.884-5.892,0-7.957c6.6-3.506,8.868,8.185,5.35,12.257-2.391,2.767.138,5.989,1.921,8.871s7.545,10.014,7.545,10.014a9.947,9.947,0,0,1,2.058-7.133c2.607-3.018,11.062-33.917-4.644-45.284s-32.238-2.273-35.338,0c0,0-16.5,2.882-16.533,20.046-.025,14.673,10.418,18.163,10.418,18.163l-3.117-11.843S587.661,293.115,588.2,284.567Z" transform="translate(-143.596 -64.783)" fill="#080b09"/>
    <path id="Path_69" data-name="Path 69" d="M612.24,328.765a4.563,4.563,0,0,1-2.918,5.577c-2.794.919-4.745-1.817-4.745-1.817Z" transform="translate(-150.086 -81.618)" fill="#e56441"/>
    <path id="Path_70" data-name="Path 70" d="M594.776,319.811c.86-.212,1.3-1.412.99-2.679s-1.263-2.122-2.123-1.91-1.3,1.412-.991,2.679S593.916,320.024,594.776,319.811Z" transform="translate(-147.101 -78.248)" fill="#080b09"/>
    <path id="Path_71" data-name="Path 71" d="M611.735,315.88c.86-.212,1.3-1.412.991-2.678s-1.264-2.123-2.124-1.91-1.3,1.412-.99,2.678S610.875,316.093,611.735,315.88Z" transform="translate(-151.311 -77.272)" fill="#080b09"/>
    <path id="Path_72" data-name="Path 72" d="M588.757,311.259l6.488-1.489a.47.47,0,0,0,.32-.528,1.511,1.511,0,0,0-2.009-.853l-5.088,2.155C588.044,310.647,588.227,311.389,588.757,311.259Z" transform="translate(-146.029 -76.529)" fill="#080b09"/>
    <path id="Path_73" data-name="Path 73" d="M615.105,304.337l-8.451,2.648a1.931,1.931,0,0,1,1.674-2.324l6.752-.88C615.292,303.729,615.423,304.259,615.105,304.337Z" transform="translate(-150.591 -75.415)" fill="#080b09"/>
    <path id="Path_74" data-name="Path 74" d="M601.26,315.7l-.916,6.842,2.416,1.167" transform="translate(-149.035 -78.375)" fill="none" stroke="#e56441" stroke-linecap="round" stroke-width="0.947"/>
  </g>
</svg>
