<svg id="Logo" xmlns="http://www.w3.org/2000/svg" width="102.73" height="59.989" viewBox="0 0 102.73 59.989">
  <g id="Group_1" data-name="Group 1" transform="translate(53.314)">
    <path id="Path_1" data-name="Path 1" d="M316.692,197.552v9.239c0,.338-.018.659-.036,1a9.942,9.942,0,0,1-1.709,5.233,2.315,2.315,0,0,1-.32.409,1.345,1.345,0,0,1-.2.249,7.826,7.826,0,0,1-5.323,2.6,6.954,6.954,0,0,1-.872.053,8.011,8.011,0,0,1-1.727-.178,7.836,7.836,0,0,1-4.486-2.474c-.107-.107-.2-.231-.3-.356a1.244,1.244,0,0,1-.231-.3,10.028,10.028,0,0,1-1.691-5.216c-.018-.338-.036-.694-.036-1.05a.025.025,0,0,1,0-.036V190.645a3.571,3.571,0,0,1,.018-.445,8.511,8.511,0,0,0,8.438,7.37h8.473Z" transform="translate(-299.71 -156.342)" fill="#f8b133"/>
    <rect id="Rectangle_1" data-name="Rectangle 1" width="0.053" height="7.085" transform="translate(16.982 17.053)" fill="#e20e17"/>
    <path id="Path_2" data-name="Path 2" d="M316.553,202.138V192.027h-8.527a8.511,8.511,0,0,1-8.438-7.37,8.225,8.225,0,0,1-.089-1.157v18.78h0a8.527,8.527,0,0,0,17.053,0Z" transform="translate(-299.5 -150.835)" fill="#1f71b8"/>
    <path id="Path_3" data-name="Path 3" d="M308.133.1h-.107A8.528,8.528,0,0,0,299.5,8.627h0V32.765h17.053V17.136H328.32V.1Z" transform="translate(-299.5 -0.082)" fill="#e71d73"/>
    <path id="Path_4" data-name="Path 4" d="M348.916,20.6a21.354,21.354,0,0,1-.3,3.56,20.582,20.582,0,0,1-20.258,17.053H308.027a8.511,8.511,0,0,1-8.438-7.37,8.225,8.225,0,0,1-.089-1.157,8.528,8.528,0,0,1,8.527-8.527H328.32a3.551,3.551,0,0,0,0-7.1H328.3A8.527,8.527,0,0,1,328.3,0h.036A20.582,20.582,0,0,1,348.6,17.053,19.423,19.423,0,0,1,348.916,20.6Z" transform="translate(-299.5 0)" fill="#f8b133"/>
    <circle id="Ellipse_1" data-name="Ellipse 1" cx="8.527" cy="8.527" r="8.527" transform="translate(20.275)" fill="#e20e17"/>
    <circle id="Ellipse_2" data-name="Ellipse 2" cx="8.527" cy="8.527" r="8.527" transform="translate(0 24.138)" fill="#662681"/>
  </g>
  <g id="Group_3" data-name="Group 3">
    <path id="Path_5" data-name="Path 5" d="M163.508,147.6v8.99a24.7,24.7,0,0,1-17.053,23.48,23.687,23.687,0,0,1-7.031,1.21c-.2.018-.409.018-.623.018V164.244a7.665,7.665,0,0,0,7.654-7.654V147.6Z" transform="translate(-114.092 -121.326)" fill="#e71d73"/>
    <path id="Path_6" data-name="Path 6" d="M33.234,51.427a8.179,8.179,0,0,1-.872,3.72,8.492,8.492,0,0,1-7.654,4.806H24.69A24.668,24.668,0,0,1,0,35.264V8.527a8.527,8.527,0,1,1,17.053,0V35.264a7.665,7.665,0,0,0,7.654,7.654h.018a8.507,8.507,0,0,1,7.654,4.788A8.4,8.4,0,0,1,33.234,51.427Z" fill="#f8b133"/>
    <g id="Group_2" data-name="Group 2" transform="translate(32.38)">
      <path id="Path_7" data-name="Path 7" d="M198.936,8.527V31.615a8.519,8.519,0,0,1-.659,3.311v.018A8.522,8.522,0,0,1,181.9,31.632V8.527a8.518,8.518,0,1,1,17.036,0Z" transform="translate(-181.9)" fill="#1f71b8"/>
    </g>
  </g>
  <circle id="Ellipse_3" data-name="Ellipse 3" cx="8.527" cy="8.527" r="8.527" transform="translate(32.362 24.334)" fill="#662681"/>
  <circle id="Ellipse_4" data-name="Ellipse 4" cx="8.527" cy="8.527" r="8.527" transform="translate(16.181 42.918)" fill="#e20e17"/>
</svg>
