<svg id="timer" xmlns="http://www.w3.org/2000/svg" width="29.127" height="29.127" viewBox="0 0 29.127 29.127">
  <path id="Vector" d="M12.741,26.093H4.877c-2.294,0-3.969-.959-4.612-2.609a4.925,4.925,0,0,1,1.553-5.3L7.45,13.046,1.819,7.913a4.925,4.925,0,0,1-1.553-5.3C.909.947,2.583,0,4.877,0h7.864c2.294,0,3.969.959,4.612,2.609a4.925,4.925,0,0,1-1.553,5.3l-5.631,5.134,5.643,5.134a4.947,4.947,0,0,1,1.553,5.3C16.71,25.134,15.035,26.093,12.741,26.093ZM8.809,14.272,3.044,19.515a3.2,3.2,0,0,0-1.08,3.3c.364.934,1.4,1.456,2.913,1.456h7.864c1.517,0,2.549-.51,2.913-1.456a3.172,3.172,0,0,0-1.08-3.3ZM4.877,1.82c-1.517,0-2.549.51-2.913,1.456a3.172,3.172,0,0,0,1.08,3.3l5.765,5.243,5.765-5.243a3.2,3.2,0,0,0,1.08-3.3c-.364-.934-1.4-1.456-2.913-1.456Z" transform="translate(5.754 1.517)" fill="#292d32"/>
  <path id="Vector-2" data-name="Vector" d="M0,0H29.127V29.127H0Z" fill="none" opacity="0"/>
</svg>
