<svg xmlns="http://www.w3.org/2000/svg" width="235.537" height="470.12" viewBox="0 0 441.537 429.12">
  <g id="Senza_titolo-1" data-name="Senza titolo-1" transform="translate(241.366 611.824) rotate(-143)">
    <path id="Path_8" data-name="Path 8" d="M276.1,224.3h13.71a37.639,37.639,0,0,1,35.841,26.029,36.462,36.462,0,0,1,1.879,10.718v.974H301.5a11.673,11.673,0,0,0-11.692-11.692H276.1Z" transform="translate(-44.786 -43.175)" fill="#1f71b8"/>
    <g id="Group_6" data-name="Group 6" transform="translate(191.157 181.125)">
      <path id="Path_9" data-name="Path 9" d="M231.414,224.3H266.7a12.524,12.524,0,0,1,5.08,1.044h0a13.007,13.007,0,0,1-5.08,24.985H231.414a13.014,13.014,0,0,1,0-26.029Z" transform="translate(-218.4 -224.3)" fill="#1f71b8"/>
    </g>
    <path id="Path_10" data-name="Path 10" d="M180.331,245.32h-13.71a37.639,37.639,0,0,1-35.841-26.029,36.463,36.463,0,0,1-1.879-10.718V207.6h26.029a11.673,11.673,0,0,0,11.692,11.692h13.71Z" transform="translate(-0.03 -38.097)" fill="#e71d73"/>
    <path id="Path_11" data-name="Path 11" d="M141.884,204.035a13.214,13.214,0,0,1-5.707-1.322,13.046,13.046,0,0,1-7.377-11.692h0a36.11,36.11,0,0,1,1.879-11.692A37.727,37.727,0,0,1,166.59,153.3H285.18a13.014,13.014,0,0,1,0,26.029H166.59A11.673,11.673,0,0,0,154.9,191.02h0a12.984,12.984,0,0,1-7.307,11.692A12.29,12.29,0,0,1,141.884,204.035Z" transform="translate(0 -21.587)" fill="#f8b133"/>
    <g id="Group_7" data-name="Group 7" transform="translate(159.143 181.195)">
      <path id="Path_12" data-name="Path 12" d="M220.7,250.429H185.414a12.524,12.524,0,0,1-5.08-1.044h0a13.007,13.007,0,0,1,5.08-24.985H220.7a13.014,13.014,0,0,1,0,26.029Z" transform="translate(-172.4 -224.4)" fill="#e71d73"/>
    </g>
    <circle id="Ellipse_5" data-name="Ellipse 5" cx="13.014" cy="13.014" r="13.014" transform="translate(195.054 181.125)" fill="#662681"/>
    <circle id="Ellipse_6" data-name="Ellipse 6" cx="13.014" cy="13.014" r="13.014" transform="translate(128.87 156.419)" fill="#e20e17"/>
    <path id="Path_13" data-name="Path 13" d="M141.884,630.035a13.215,13.215,0,0,1-5.707-1.322A13.047,13.047,0,0,1,128.8,617.02h0a36.11,36.11,0,0,1,1.879-11.692A37.727,37.727,0,0,1,166.59,579.3H297.081a13.014,13.014,0,1,1,0,26.029H166.59A11.673,11.673,0,0,0,154.9,617.02h0a12.984,12.984,0,0,1-7.307,11.692A13.215,13.215,0,0,1,141.884,630.035Z" transform="translate(0 -151.113)" fill="#e71d73"/>
    <g id="Group_8" data-name="Group 8" transform="translate(159.143 477.6)">
      <path id="Path_14" data-name="Path 14" d="M220.7,676.328H185.414a12.524,12.524,0,0,1-5.08-1.044h0a13.007,13.007,0,0,1,5.08-24.985H220.7a13.014,13.014,0,1,1,0,26.028Z" transform="translate(-172.4 -650.3)" fill="#1f71b8"/>
    </g>
    <path id="Path_15" data-name="Path 15" d="M296.973,259.8a13.214,13.214,0,0,1,5.707,1.322,13.046,13.046,0,0,1,7.377,11.692h0a36.109,36.109,0,0,1-1.879,11.692,37.727,37.727,0,0,1-35.911,26.029H231.414a13.014,13.014,0,0,1,0-26.029h40.852a11.673,11.673,0,0,0,11.692-11.692h0a12.984,12.984,0,0,1,7.308-11.692A12.761,12.761,0,0,1,296.973,259.8Z" transform="translate(-27.243 -53.969)" fill="#f8b133"/>
    <circle id="Ellipse_7" data-name="Ellipse 7" cx="13.014" cy="13.014" r="13.014" transform="translate(256.716 205.831)" fill="#3aaa35"/>
    <path id="Path_16" data-name="Path 16" d="M180.331,387.221h-13.71a37.639,37.639,0,0,1-35.841-26.029,36.463,36.463,0,0,1-1.879-10.718V349.5h26.029a11.673,11.673,0,0,0,11.692,11.692h13.71Z" transform="translate(-0.03 -81.242)" fill="#e71d73"/>
    <path id="Path_17" data-name="Path 17" d="M141.884,346.035a13.215,13.215,0,0,1-5.707-1.322,13.047,13.047,0,0,1-7.377-11.692h0a36.11,36.11,0,0,1,1.879-11.692A37.727,37.727,0,0,1,166.59,295.3h40.852a13.014,13.014,0,1,1,0,26.029H166.59A11.673,11.673,0,0,0,154.9,333.021h0a12.984,12.984,0,0,1-7.307,11.692A13.214,13.214,0,0,1,141.884,346.035Z" transform="translate(0 -64.763)" fill="#f8b133"/>
    <g id="Group_9" data-name="Group 9" transform="translate(159.143 279.95)">
      <path id="Path_18" data-name="Path 18" d="M271.295,392.328h-85.88a12.524,12.524,0,0,1-5.08-1.044h0a13.007,13.007,0,0,1,5.08-24.985h85.88a13.014,13.014,0,0,1,0,26.029Z" transform="translate(-172.4 -366.3)" fill="#e71d73"/>
    </g>
    <circle id="Ellipse_8" data-name="Ellipse 8" cx="13.014" cy="13.014" r="13.014" transform="translate(128.87 255.244)" fill="#e20e17"/>
    <path id="Path_19" data-name="Path 19" d="M256.731,529.221h-13.71a37.639,37.639,0,0,1-35.841-26.029,36.462,36.462,0,0,1-1.879-10.718V491.5h26.029a11.673,11.673,0,0,0,11.692,11.692h13.71Z" transform="translate(-23.26 -124.417)" fill="#e71d73"/>
    <path id="Path_20" data-name="Path 20" d="M218.284,488.035a13.215,13.215,0,0,1-5.707-1.322,13.047,13.047,0,0,1-7.377-11.692h0a36.109,36.109,0,0,1,1.879-11.692A37.727,37.727,0,0,1,242.99,437.3h40.852a13.014,13.014,0,0,1,0,26.029H242.99A11.673,11.673,0,0,0,231.3,475.021h0a12.984,12.984,0,0,1-7.307,11.692A13.215,13.215,0,0,1,218.284,488.035Z" transform="translate(-23.229 -107.938)" fill="#f8b133"/>
    <g id="Group_10" data-name="Group 10" transform="translate(212.314 378.775)">
      <path id="Path_21" data-name="Path 21" d="M294.106,534.328H261.814a12.526,12.526,0,0,1-5.08-1.044h0a13.008,13.008,0,0,1,5.08-24.985h32.292a13.014,13.014,0,1,1,0,26.029Z" transform="translate(-248.8 -508.3)" fill="#e71d73"/>
    </g>
    <circle id="Ellipse_9" data-name="Ellipse 9" cx="13.014" cy="13.014" r="13.014" transform="translate(182.04 354.069)" fill="#e20e17"/>
    <path id="Path_22" data-name="Path 22" d="M353,366.3h13.71a37.639,37.639,0,0,1,35.841,26.029,36.464,36.464,0,0,1,1.879,10.718v.974H378.4a11.673,11.673,0,0,0-11.692-11.692H353Z" transform="translate(-68.168 -86.35)" fill="#1f71b8"/>
    <path id="Path_23" data-name="Path 23" d="M373.873,401.8a13.214,13.214,0,0,1,5.707,1.322,13.047,13.047,0,0,1,7.377,11.692h0a36.11,36.11,0,0,1-1.879,11.692,37.727,37.727,0,0,1-35.911,26.029H308.314a13.014,13.014,0,1,1,0-26.029h40.852a11.673,11.673,0,0,0,11.692-11.692h0a12.984,12.984,0,0,1,7.307-11.692A13.213,13.213,0,0,1,373.873,401.8Z" transform="translate(-50.624 -97.144)" fill="#f8b133"/>
    <g id="Group_11" data-name="Group 11" transform="translate(244.745 279.95)">
      <path id="Path_24" data-name="Path 24" d="M308.414,366.3H343.7a12.523,12.523,0,0,1,5.08,1.044h0a13.007,13.007,0,0,1-5.08,24.985H308.414a13.014,13.014,0,1,1,0-26.029Z" transform="translate(-295.399 -366.3)" fill="#1f71b8"/>
    </g>
    <circle id="Ellipse_10" data-name="Ellipse 10" cx="13.014" cy="13.014" r="13.014" transform="translate(244.537 279.95)" fill="#662681"/>
    <circle id="Ellipse_11" data-name="Ellipse 11" cx="13.014" cy="13.014" r="13.014" transform="translate(310.234 304.656)" fill="#3aaa35"/>
    <path id="Path_25" data-name="Path 25" d="M276.1,650.2h13.71a37.639,37.639,0,0,1,35.841,26.029,36.463,36.463,0,0,1,1.879,10.718v.974H301.5a11.673,11.673,0,0,0-11.692-11.692H276.1Z" transform="translate(-44.786 -172.67)" fill="#f8b133"/>
    <path id="Path_26" data-name="Path 26" d="M296.973,685.7a13.215,13.215,0,0,1,5.707,1.322,13.047,13.047,0,0,1,7.377,11.692h0a36.109,36.109,0,0,1-1.879,11.692,37.727,37.727,0,0,1-35.911,26.029H231.414a13.014,13.014,0,0,1,0-26.029h40.852a11.673,11.673,0,0,0,11.692-11.692h0a12.984,12.984,0,0,1,7.308-11.692A13.214,13.214,0,0,1,296.973,685.7Z" transform="translate(-27.243 -183.464)" fill="#e71d73"/>
    <g id="Group_12" data-name="Group 12" transform="translate(193.384 477.53)">
      <path id="Path_27" data-name="Path 27" d="M234.614,650.2H269.9a12.525,12.525,0,0,1,5.08,1.044h0a13.007,13.007,0,0,1-5.08,24.985H234.614a13.014,13.014,0,0,1,0-26.029Z" transform="translate(-221.6 -650.2)" fill="#f8b133"/>
    </g>
    <circle id="Ellipse_12" data-name="Ellipse 12" cx="13.014" cy="13.014" r="13.014" transform="translate(256.716 501.958)" fill="#e20e17"/>
    <path id="Path_28" data-name="Path 28" d="M353,508.2h13.71a37.639,37.639,0,0,1,35.841,26.028,36.465,36.465,0,0,1,1.879,10.718v.974H378.4a11.673,11.673,0,0,0-11.692-11.692H353Z" transform="translate(-68.168 -129.495)" fill="#1f71b8"/>
    <path id="Path_29" data-name="Path 29" d="M391.021,543.8a13.214,13.214,0,0,1,5.707,1.322,13.046,13.046,0,0,1,7.377,11.692h0a36.106,36.106,0,0,1-1.879,11.692,37.727,37.727,0,0,1-35.911,26.029h-1.6a13.014,13.014,0,1,1,0-26.029h1.6a11.673,11.673,0,0,0,11.692-11.692h0a12.984,12.984,0,0,1,7.308-11.692A12.29,12.29,0,0,1,391.021,543.8Z" transform="translate(-67.773 -140.319)" fill="#f8b133"/>
    <g id="Group_13" data-name="Group 13" transform="translate(244.745 378.705)">
      <path id="Path_30" data-name="Path 30" d="M308.414,508.2H343.7a12.523,12.523,0,0,1,5.08,1.044h0a13.007,13.007,0,0,1-5.08,24.985H308.414a13.014,13.014,0,1,1,0-26.028Z" transform="translate(-295.399 -508.2)" fill="#1f71b8"/>
    </g>
    <circle id="Ellipse_13" data-name="Ellipse 13" cx="13.014" cy="13.014" r="13.014" transform="translate(244.537 378.775)" fill="#662681"/>
    <circle id="Ellipse_14" data-name="Ellipse 14" cx="13.014" cy="13.014" r="13.014" transform="translate(310.234 403.481)" fill="#3aaa35"/>
    <path id="Path_31" data-name="Path 31" d="M393.2,82.3h13.71a37.639,37.639,0,0,1,35.841,26.029,36.462,36.462,0,0,1,1.879,10.718v.974H418.6a11.673,11.673,0,0,0-11.692-11.692H393.2Z" transform="translate(-80.391)" fill="#e71d73"/>
    <path id="Path_32" data-name="Path 32" d="M414.073,117.8a13.215,13.215,0,0,1,5.707,1.322,13.046,13.046,0,0,1,7.377,11.692h0a36.11,36.11,0,0,1-1.879,11.692,37.727,37.727,0,0,1-35.911,26.029H348.514a13.014,13.014,0,0,1,0-26.029h40.852a11.673,11.673,0,0,0,11.692-11.692h0a12.984,12.984,0,0,1,7.307-11.692A13.214,13.214,0,0,1,414.073,117.8Z" transform="translate(-62.847 -10.794)" fill="#1f71b8"/>
    <g id="Group_14" data-name="Group 14" transform="translate(272.653 82.3)">
      <path id="Path_33" data-name="Path 33" d="M348.514,82.3H383.8a12.524,12.524,0,0,1,5.08,1.044h0a13.007,13.007,0,0,1-5.08,24.985H348.514a13.014,13.014,0,0,1,0-26.029Z" transform="translate(-335.5 -82.3)" fill="#f8b133"/>
    </g>
    <circle id="Ellipse_15" data-name="Ellipse 15" cx="13.014" cy="13.014" r="13.014" transform="translate(272.723 131.712)" fill="#662681"/>
    <circle id="Ellipse_16" data-name="Ellipse 16" cx="13.014" cy="13.014" r="13.014" transform="translate(338.211 107.006)" fill="#e20e17"/>
    <circle id="Ellipse_17" data-name="Ellipse 17" cx="13.014" cy="13.014" r="13.014" transform="translate(283.579 428.048)" fill="#e20e17"/>
    <path id="Path_34" data-name="Path 34" d="M180.331,671.221h-13.71a37.639,37.639,0,0,1-35.841-26.029,36.463,36.463,0,0,1-1.879-10.718V633.5h26.029a11.673,11.673,0,0,0,11.692,11.692h13.71Z" transform="translate(-0.03 -167.592)" fill="#1f71b8"/>
    <circle id="Ellipse_18" data-name="Ellipse 18" cx="13.014" cy="13.014" r="13.014" transform="translate(128.87 452.894)" fill="#662681"/>
    <circle id="Ellipse_19" data-name="Ellipse 19" cx="13.014" cy="13.014" r="13.014" transform="translate(193.245 477.6)" fill="#3aaa35"/>
  </g>
</svg>
