<svg xmlns="http://www.w3.org/2000/svg" width="161.556" height="80.838" viewBox="0 0 161.556 80.838">
  <g id="Senza_titolo-1" data-name="Senza titolo-1" transform="translate(243.856 -128.8) rotate(90)">
    <path id="Path_8" data-name="Path 8" d="M276.1,224.3h4.706a12.92,12.92,0,0,1,12.3,8.934,12.514,12.514,0,0,1,.645,3.679v.334h-8.934a4.007,4.007,0,0,0-4.013-4.013H276.1Z" transform="translate(-112.113 -108.079)" fill="#1f71b8"/>
    <g id="Group_6" data-name="Group 6" transform="translate(150.204 116.221)">
      <path id="Path_9" data-name="Path 9" d="M222.867,224.3h12.111a4.3,4.3,0,0,1,1.744.358h0a4.465,4.465,0,0,1-1.744,8.576H222.867a4.467,4.467,0,0,1,0-8.934Z" transform="translate(-218.4 -224.3)" fill="#1f71b8"/>
    </g>
    <path id="Path_10" data-name="Path 10" d="M146.553,220.547h-4.706a12.92,12.92,0,0,1-12.3-8.934,12.516,12.516,0,0,1-.645-3.679V207.6h8.934a4.007,4.007,0,0,0,4.013,4.013h4.706Z" transform="translate(-0.076 -95.368)" fill="#e71d73"/>
    <path id="Path_11" data-name="Path 11" d="M133.291,170.714a4.536,4.536,0,0,1-1.959-.454,4.478,4.478,0,0,1-2.532-4.013h0a12.4,12.4,0,0,1,.645-4.013,12.95,12.95,0,0,1,12.326-8.934h40.705a4.467,4.467,0,0,1,0,8.934H141.771a4.007,4.007,0,0,0-4.013,4.013h0a4.457,4.457,0,0,1-2.508,4.013A4.218,4.218,0,0,1,133.291,170.714Z" transform="translate(0 -54.039)" fill="#f8b133"/>
    <g id="Group_7" data-name="Group 7" transform="translate(139.215 116.245)">
      <path id="Path_12" data-name="Path 12" d="M188.978,233.334H176.867a4.3,4.3,0,0,1-1.744-.358h0a4.465,4.465,0,0,1,1.744-8.576h12.111a4.467,4.467,0,1,1,0,8.934Z" transform="translate(-172.4 -224.4)" fill="#e71d73"/>
    </g>
    <circle id="Ellipse_5" data-name="Ellipse 5" cx="4.467" cy="4.467" r="4.467" transform="translate(151.542 116.221)" fill="#662681"/>
    <circle id="Ellipse_6" data-name="Ellipse 6" cx="4.467" cy="4.467" r="4.467" transform="translate(128.824 107.741)" fill="#e20e17"/>
    <path id="Path_13" data-name="Path 13" d="M133.291,596.714a4.536,4.536,0,0,1-1.959-.454,4.478,4.478,0,0,1-2.532-4.013h0a12.4,12.4,0,0,1,.645-4.013,12.95,12.95,0,0,1,12.326-8.934h44.79a4.467,4.467,0,1,1,0,8.934h-44.79a4.007,4.007,0,0,0-4.013,4.013h0a4.457,4.457,0,0,1-2.508,4.013A4.536,4.536,0,0,1,133.291,596.714Z" transform="translate(0 -378.276)" fill="#e71d73"/>
    <g id="Group_8" data-name="Group 8" transform="translate(139.215 217.985)">
      <path id="Path_14" data-name="Path 14" d="M188.978,659.234H176.867a4.3,4.3,0,0,1-1.744-.358h0a4.465,4.465,0,0,1,1.744-8.576h12.111a4.467,4.467,0,1,1,0,8.934Z" transform="translate(-172.4 -650.3)" fill="#1f71b8"/>
    </g>
    <path id="Path_15" data-name="Path 15" d="M245.37,259.8a4.536,4.536,0,0,1,1.959.454,4.478,4.478,0,0,1,2.532,4.013h0a12.394,12.394,0,0,1-.645,4.013,12.95,12.95,0,0,1-12.326,8.934H222.867a4.467,4.467,0,0,1,0-8.934h14.022a4.007,4.007,0,0,0,4.013-4.013h0a4.457,4.457,0,0,1,2.508-4.013A4.38,4.38,0,0,1,245.37,259.8Z" transform="translate(-68.196 -135.098)" fill="#f8b133"/>
    <circle id="Ellipse_7" data-name="Ellipse 7" cx="4.467" cy="4.467" r="4.467" transform="translate(172.706 124.702)" fill="#3aaa35"/>
    <path id="Path_16" data-name="Path 16" d="M146.553,362.447h-4.706a12.92,12.92,0,0,1-12.3-8.934,12.516,12.516,0,0,1-.645-3.679V349.5h8.934a4.007,4.007,0,0,0,4.013,4.013h4.706Z" transform="translate(-0.076 -203.371)" fill="#e71d73"/>
    <path id="Path_17" data-name="Path 17" d="M133.291,312.715a4.536,4.536,0,0,1-1.959-.454,4.478,4.478,0,0,1-2.532-4.013h0a12.394,12.394,0,0,1,.645-4.013,12.95,12.95,0,0,1,12.326-8.934h14.022a4.467,4.467,0,1,1,0,8.934H141.771a4.007,4.007,0,0,0-4.013,4.013h0a4.457,4.457,0,0,1-2.508,4.013A4.536,4.536,0,0,1,133.291,312.715Z" transform="translate(0 -162.118)" fill="#f8b133"/>
    <g id="Group_9" data-name="Group 9" transform="translate(139.215 150.142)">
      <path id="Path_18" data-name="Path 18" d="M206.345,375.234H176.867a4.3,4.3,0,0,1-1.744-.358h0a4.465,4.465,0,0,1,1.744-8.576h29.478a4.467,4.467,0,1,1,0,8.934Z" transform="translate(-172.4 -366.3)" fill="#e71d73"/>
    </g>
    <circle id="Ellipse_8" data-name="Ellipse 8" cx="4.467" cy="4.467" r="4.467" transform="translate(128.824 141.662)" fill="#e20e17"/>
    <path id="Path_19" data-name="Path 19" d="M222.953,504.447h-4.706a12.92,12.92,0,0,1-12.3-8.934,12.515,12.515,0,0,1-.645-3.679V491.5h8.934a4.007,4.007,0,0,0,4.013,4.013h4.706Z" transform="translate(-58.226 -311.45)" fill="#e71d73"/>
    <path id="Path_20" data-name="Path 20" d="M209.691,454.715a4.536,4.536,0,0,1-1.959-.454,4.478,4.478,0,0,1-2.532-4.013h0a12.4,12.4,0,0,1,.645-4.013,12.95,12.95,0,0,1,12.326-8.934h14.022a4.467,4.467,0,1,1,0,8.934H218.171a4.007,4.007,0,0,0-4.013,4.013h0a4.457,4.457,0,0,1-2.508,4.013A4.536,4.536,0,0,1,209.691,454.715Z" transform="translate(-58.149 -270.197)" fill="#f8b133"/>
    <g id="Group_10" data-name="Group 10" transform="translate(157.466 184.064)">
      <path id="Path_21" data-name="Path 21" d="M264.351,517.234H253.267a4.3,4.3,0,0,1-1.744-.358h0a4.465,4.465,0,0,1,1.744-8.576h11.084a4.467,4.467,0,0,1,0,8.934Z" transform="translate(-248.8 -508.3)" fill="#e71d73"/>
    </g>
    <circle id="Ellipse_9" data-name="Ellipse 9" cx="4.467" cy="4.467" r="4.467" transform="translate(147.074 175.583)" fill="#e20e17"/>
    <path id="Path_22" data-name="Path 22" d="M353,366.3h4.706a12.92,12.92,0,0,1,12.3,8.934,12.516,12.516,0,0,1,.645,3.679v.334h-8.934a4.007,4.007,0,0,0-4.013-4.013H353Z" transform="translate(-170.643 -216.158)" fill="#1f71b8"/>
    <path id="Path_23" data-name="Path 23" d="M322.27,401.8a4.535,4.535,0,0,1,1.959.454,4.478,4.478,0,0,1,2.532,4.013h0a12.394,12.394,0,0,1-.645,4.013,12.95,12.95,0,0,1-12.326,8.934H299.767a4.467,4.467,0,1,1,0-8.934h14.022a4.007,4.007,0,0,0,4.013-4.013h0a4.457,4.457,0,0,1,2.508-4.013A4.536,4.536,0,0,1,322.27,401.8Z" transform="translate(-126.726 -243.177)" fill="#f8b133"/>
    <g id="Group_11" data-name="Group 11" transform="translate(168.598 150.142)">
      <path id="Path_24" data-name="Path 24" d="M299.866,366.3h12.111a4.3,4.3,0,0,1,1.744.358h0a4.465,4.465,0,0,1-1.744,8.576H299.866a4.467,4.467,0,1,1,0-8.934Z" transform="translate(-295.399 -366.3)" fill="#1f71b8"/>
    </g>
    <circle id="Ellipse_10" data-name="Ellipse 10" cx="4.467" cy="4.467" r="4.467" transform="translate(168.526 150.142)" fill="#662681"/>
    <circle id="Ellipse_11" data-name="Ellipse 11" cx="4.467" cy="4.467" r="4.467" transform="translate(191.077 158.623)" fill="#3aaa35"/>
    <path id="Path_25" data-name="Path 25" d="M276.1,650.2h4.706a12.92,12.92,0,0,1,12.3,8.934,12.514,12.514,0,0,1,.645,3.679v.334h-8.934a4.007,4.007,0,0,0-4.013-4.013H276.1Z" transform="translate(-112.113 -432.239)" fill="#f8b133"/>
    <path id="Path_26" data-name="Path 26" d="M245.37,685.7a4.536,4.536,0,0,1,1.959.454,4.478,4.478,0,0,1,2.532,4.013h0a12.394,12.394,0,0,1-.645,4.013,12.95,12.95,0,0,1-12.326,8.934H222.867a4.467,4.467,0,0,1,0-8.934h14.022a4.007,4.007,0,0,0,4.013-4.013h0a4.457,4.457,0,0,1,2.508-4.013A4.535,4.535,0,0,1,245.37,685.7Z" transform="translate(-68.196 -459.259)" fill="#e71d73"/>
    <g id="Group_12" data-name="Group 12" transform="translate(150.968 217.961)">
      <path id="Path_27" data-name="Path 27" d="M226.067,650.2h12.111a4.3,4.3,0,0,1,1.744.358h0a4.465,4.465,0,0,1-1.744,8.576H226.067a4.467,4.467,0,0,1,0-8.934Z" transform="translate(-221.6 -650.2)" fill="#f8b133"/>
    </g>
    <circle id="Ellipse_12" data-name="Ellipse 12" cx="4.467" cy="4.467" r="4.467" transform="translate(172.706 226.346)" fill="#e20e17"/>
    <path id="Path_28" data-name="Path 28" d="M353,508.2h4.706a12.92,12.92,0,0,1,12.3,8.934,12.515,12.515,0,0,1,.645,3.679v.334h-8.934a4.007,4.007,0,0,0-4.013-4.013H353Z" transform="translate(-170.643 -324.16)" fill="#1f71b8"/>
    <path id="Path_29" data-name="Path 29" d="M365.2,543.8a4.536,4.536,0,0,1,1.959.454,4.478,4.478,0,0,1,2.532,4.013h0a12.394,12.394,0,0,1-.645,4.013,12.95,12.95,0,0,1-12.326,8.934h-.549a4.467,4.467,0,0,1,0-8.934h.549a4.007,4.007,0,0,0,4.013-4.013h0a4.457,4.457,0,0,1,2.508-4.013A4.219,4.219,0,0,1,365.2,543.8Z" transform="translate(-169.653 -351.256)" fill="#f8b133"/>
    <g id="Group_13" data-name="Group 13" transform="translate(168.598 184.04)">
      <path id="Path_30" data-name="Path 30" d="M299.866,508.2h12.111a4.3,4.3,0,0,1,1.744.358h0a4.465,4.465,0,0,1-1.744,8.576H299.866a4.467,4.467,0,0,1,0-8.934Z" transform="translate(-295.399 -508.2)" fill="#1f71b8"/>
    </g>
    <circle id="Ellipse_13" data-name="Ellipse 13" cx="4.467" cy="4.467" r="4.467" transform="translate(168.526 184.064)" fill="#662681"/>
    <circle id="Ellipse_14" data-name="Ellipse 14" cx="4.467" cy="4.467" r="4.467" transform="translate(191.077 192.544)" fill="#3aaa35"/>
    <path id="Path_31" data-name="Path 31" d="M393.2,82.3h4.706a12.919,12.919,0,0,1,12.3,8.934,12.514,12.514,0,0,1,.645,3.679v.334h-8.934a4.007,4.007,0,0,0-4.013-4.013H393.2Z" transform="translate(-201.24)" fill="#e71d73"/>
    <path id="Path_32" data-name="Path 32" d="M362.47,117.8a4.536,4.536,0,0,1,1.959.454,4.478,4.478,0,0,1,2.532,4.013h0a12.394,12.394,0,0,1-.645,4.013,12.95,12.95,0,0,1-12.326,8.934H339.967a4.467,4.467,0,1,1,0-8.934h14.022A4.007,4.007,0,0,0,358,122.267h0a4.457,4.457,0,0,1,2.508-4.013A4.536,4.536,0,0,1,362.47,117.8Z" transform="translate(-157.323 -27.02)" fill="#1f71b8"/>
    <g id="Group_14" data-name="Group 14" transform="translate(178.177 82.3)">
      <path id="Path_33" data-name="Path 33" d="M339.967,82.3h12.111a4.3,4.3,0,0,1,1.744.358h0a4.465,4.465,0,0,1-1.744,8.576H339.967a4.467,4.467,0,1,1,0-8.934Z" transform="translate(-335.5 -82.3)" fill="#f8b133"/>
    </g>
    <circle id="Ellipse_15" data-name="Ellipse 15" cx="4.467" cy="4.467" r="4.467" transform="translate(178.201 99.261)" fill="#662681"/>
    <circle id="Ellipse_16" data-name="Ellipse 16" cx="4.467" cy="4.467" r="4.467" transform="translate(200.68 90.78)" fill="#e20e17"/>
    <circle id="Ellipse_17" data-name="Ellipse 17" cx="4.467" cy="4.467" r="4.467" transform="translate(181.927 200.977)" fill="#e20e17"/>
    <path id="Path_34" data-name="Path 34" d="M146.553,646.447h-4.706a12.92,12.92,0,0,1-12.3-8.934,12.516,12.516,0,0,1-.645-3.679V633.5h8.934a4.007,4.007,0,0,0,4.013,4.013h4.706Z" transform="translate(-0.076 -419.528)" fill="#1f71b8"/>
    <circle id="Ellipse_18" data-name="Ellipse 18" cx="4.467" cy="4.467" r="4.467" transform="translate(128.824 209.505)" fill="#662681"/>
    <circle id="Ellipse_19" data-name="Ellipse 19" cx="4.467" cy="4.467" r="4.467" transform="translate(150.92 217.985)" fill="#3aaa35"/>
  </g>
</svg>
