<svg xmlns="http://www.w3.org/2000/svg" width="37" height="37" viewBox="0 0 54.781 54.781">
  <g id="send" transform="translate(0 27.39) rotate(-45)">
    <path id="Vector" d="M5.031,31.484a4.958,4.958,0,0,1-3.68-1.34c-1.42-1.42-2.421-4.438.775-10.846l1.4-2.792a2.227,2.227,0,0,0,0-1.517L2.126,12.2c-3.212-6.408-2.2-9.442-.775-10.846,1.4-1.42,4.438-2.437,10.83.775L26,9.034c3.438,1.711,5.326,4.1,5.326,6.714s-1.888,5-5.31,6.714L12.2,29.37A16.586,16.586,0,0,1,5.031,31.484Zm0-29.052a2.722,2.722,0,0,0-1.969.629c-1.178,1.162-.71,4.18,1.227,8.038l1.4,2.808a4.564,4.564,0,0,1,0,3.68l-1.4,2.792c-1.937,3.874-2.4,6.876-1.227,8.038,1.162,1.178,4.18.71,8.054-1.227l13.816-6.908c2.534-1.259,3.97-2.921,3.97-4.551s-1.453-3.293-3.987-4.551L11.1,4.288A14.846,14.846,0,0,0,5.031,2.432Z" transform="translate(3.701 3.62)" fill="#500e9e"/>
    <path id="Vector-2" data-name="Vector" d="M9.926,2.421H1.21A1.219,1.219,0,0,1,0,1.21,1.219,1.219,0,0,1,1.21,0H9.926a1.219,1.219,0,0,1,1.21,1.21A1.219,1.219,0,0,1,9.926,2.421Z" transform="translate(7.57 18.157)" fill="#500e9e"/>
    <path id="Vector-3" data-name="Vector" d="M0,0H38.736V38.736H0Z" fill="none" opacity="0"/>
  </g>
</svg>
